#!OML:ASF H:\Dans Jumps\Project 1\Capture day 1\Session 1\subject.ASF
:FULLY-SPECIFIED
:DEGREES
310
root 0.363213 15.6427 -14.6704 26.7784 0.972029 -1.86681
lowerback 17.4995 0.222556 -1.00683
upperback 3.53157 0.272508 2.34312
thorax -6.03052 0.164302 3.01209
lowerneck -20.9375 0.397983 -1.88145
upperneck 10.3152 1.16564 -0.65786
head 6.52194 0.423129 0.220021
rclavicle -6.55989e-015 7.55382e-015
rhumerus -25.6871 -14.9011 -79.1638
rradius 22.4647
rwrist 32.4325
rhand -19.558 -25.9234
rfingers 7.12502
rthumb 6.7665 -55.7953
lclavicle -6.55989e-015 7.55382e-015
lhumerus -20.083 22.2527 81.0091
lradius 10.0401
lwrist -15.7801
lhand -25.3471 -5.16676
lfingers 7.12502
lthumb 1.17638 24.8097
rfemur -60.6467 0.222318 21.5596
rtibia 64.9697
rfoot -32.2364 -15.7121
rtoes 1.94715
lfemur -59.7101 4.73308 -17.9568
ltibia 64.1096
lfoot -28.3826 19.5376
ltoes -6.97464
311
root 0.352721 15.6023 -14.6069 27.0756 1.00487 -1.87136
lowerback 17.6291 0.238996 -1.05584
upperback 3.28782 0.290275 2.36132
thorax -6.3633 0.180285 3.05926
lowerneck -21.2577 0.374011 -1.90957
upperneck 10.3416 1.143 -0.615025
head 6.58129 0.413687 0.236827
rclavicle -5.1684e-015 -1.27222e-014
rhumerus -25.1998 -15.2683 -79.142
rradius 22.227
rwrist 32.8429
rhand -19.6528 -25.8674
rfingers 7.12502
rthumb 6.67495 -55.7422
lclavicle -5.1684e-015 -1.27222e-014
lhumerus -19.3427 22.7382 81.2847
lradius 9.58202
lwrist -16.0269
lhand -25.5865 -5.10005
lfingers 7.12502
lthumb 0.945147 24.8776
rfemur -60.9949 0.255142 21.6134
rtibia 65.4888
rfoot -32.1769 -15.8969
rtoes 2.16181
lfemur -60.0593 4.72472 -17.8998
ltibia 64.6381
lfoot -28.4247 19.6075
ltoes -6.81356
312
root 0.342337 15.5611 -14.5393 27.3554 1.04055 -1.88064
lowerback 17.7269 0.253264 -1.0988
upperback 3.04852 0.306554 2.38577
thorax -6.67485 0.195505 3.10981
lowerneck -21.5728 0.35079 -1.93997
upperneck 10.3543 1.1232 -0.580926
head 6.63529 0.404949 0.2514
rclavicle -1.98785e-015 6.55989e-015
rhumerus -24.6607 -15.7224 -79.1027
rradius 21.972
rwrist 33.3464
rhand -19.733 -25.8081
rfingers 7.12502
rthumb 6.59756 -55.6853
lclavicle -1.98785e-015 6.55989e-015
lhumerus -18.5728 23.2224 81.5869
lradius 9.18676
lwrist -16.2349
lhand -25.8227 -5.03931
lfingers 7.12502
lthumb 0.716984 24.9392
rfemur -61.3086 0.281104 21.6758
rtibia 66.0051
rfoot -32.0879 -16.0938
rtoes 2.35874
lfemur -60.3726 4.71952 -17.8365
ltibia 65.1689
lfoot -28.4632 19.6882
ltoes -6.65692
313
root 0.332273 15.5198 -14.4668 27.6054 1.08123 -1.89634
lowerback 17.7937 0.264105 -1.13123
upperback 2.81923 0.320661 2.41736
thorax -6.95942 0.209367 3.1623
lowerneck -21.8615 0.327593 -1.97939
upperneck 10.3398 1.10579 -0.550555
head 6.6761 0.397058 0.266301
rclavicle 1.19271e-015 2.8625e-014
rhumerus -24.0672 -16.2569 -79.0525
rradius 21.7042
rwrist 33.9507
rhand -19.7869 -25.7525
rfingers 7.12502
rthumb 6.54549 -55.6313
lclavicle 1.19271e-015 2.8625e-014
lhumerus -17.7803 23.7135 81.9096
lradius 8.8609
lwrist -16.4508
lhand -26.0893 -5.03749
lfingers 7.12502
lthumb 0.459486 24.9418
rfemur -61.5613 0.297512 21.7474
rtibia 66.5121
rfoot -32.0006 -16.3046
rtoes 2.56857
lfemur -60.6292 4.7154 -17.7622
ltibia 65.6939
lfoot -28.4999 19.7747
ltoes -6.48333
314
root 0.322417 15.4792 -14.3892 27.8123 1.12165 -1.91974
lowerback 17.8362 0.274534 -1.15726
upperback 2.60531 0.335737 2.45529
thorax -7.21486 0.223325 3.21748
lowerneck -22.1319 0.30952 -2.01584
upperneck 10.3067 1.09656 -0.536992
head 6.70786 0.39195 0.276067
rclavicle -9.93923e-016 -2.40529e-014
rhumerus -23.4281 -16.8555 -79.0016
rradius 21.4464
rwrist 34.6564
rhand -19.8348 -25.6911
rfingers 7.12502
rthumb 6.49927 -55.5713
lclavicle -9.93923e-016 -2.40529e-014
lhumerus -16.9606 24.2059 82.2533
lradius 8.60345
lwrist -16.685
lhand -26.3835 -5.08295
lfingers 7.12502
lthumb 0.175315 24.8967
rfemur -61.7316 0.308394 21.8284
rtibia 67.0007
rfoot -31.9355 -16.5307
rtoes 2.79269
lfemur -60.8084 4.72033 -17.6765
ltibia 66.2026
lfoot -28.5323 19.8746
ltoes -6.34673
315
root 0.312866 15.4406 -14.306 27.9652 1.15851 -1.95216
lowerback 17.8567 0.285604 -1.17685
upperback 2.41066 0.353116 2.4989
thorax -7.43819 0.237877 3.27426
lowerneck -22.3731 0.295047 -2.05761
upperneck 10.2511 1.09404 -0.530584
head 6.72751 0.389524 0.284976
rclavicle 1.59028e-015 -5.76476e-015
rhumerus -22.7488 -17.4962 -78.9605
rradius 21.2088
rwrist 35.4495
rhand -19.8782 -25.6365
rfingers 7.12502
rthumb 6.45739 -55.5181
lclavicle 1.59028e-015 -5.76476e-015
lhumerus -16.1132 24.6982 82.6169
lradius 8.41165
lwrist -16.9295
lhand -26.7117 -5.21426
lfingers 7.12502
lthumb -0.141641 24.7654
rfemur -61.7954 0.314299 21.9209
rtibia 67.4567
rfoot -31.9114 -16.7863
rtoes 2.94106
lfemur -60.8855 4.7348 -17.5764
ltibia 66.68
lfoot -28.5615 20.0056
ltoes -6.34909
316
root 0.303781 15.4049 -14.2167 28.0649 1.18852 -1.99479
lowerback 17.8534 0.299655 -1.1862
upperback 2.23033 0.376379 2.54419
thorax -7.63379 0.254624 3.32528
lowerneck -22.5861 0.279537 -2.10983
upperneck 10.1902 1.09207 -0.520469
head 6.74076 0.387433 0.296733
rclavicle 3.57812e-015 7.7526e-015
rhumerus -22.0541 -18.1293 -78.9441
rradius 21.0214
rwrist 36.2545
rhand -19.9425 -25.5885
rfingers 7.12502
rthumb 6.39532 -55.4719
lclavicle 3.57812e-015 7.7526e-015
lhumerus -15.2564 25.179 82.99
lradius 8.30127
lwrist -17.1558
lhand -27.0549 -5.42667
lfingers 7.12502
lthumb -0.473087 24.5525
rfemur -61.7449 0.311765 22.0286
rtibia 67.8646
rfoot -31.9445 -17.0699
rtoes 2.91334
lfemur -60.8513 4.76151 -17.4618
ltibia 67.1118
lfoot -28.5928 20.1822
ltoes -6.59553
317
root 0.295118 15.3737 -14.1212 28.1107 1.20527 -2.04079
lowerback 17.8297 0.319953 -1.19581
upperback 2.06134 0.407658 2.58889
thorax -7.80675 0.274907 3.37361
lowerneck -22.7819 0.262132 -2.17222
upperneck 10.1402 1.08941 -0.503199
head 6.75471 0.385212 0.312355
rclavicle -1.98785e-015 -1.68967e-014
rhumerus -21.3591 -18.7089 -78.9603
rradius 20.8999
rwrist 36.995
rhand -20.031 -25.5647
rfingers 7.12502
rthumb 6.30988 -55.4508
lclavicle -1.98785e-015 -1.68967e-014
lhumerus -14.4091 25.6418 83.3632
lradius 8.29012
lwrist -17.3265
lhand -27.3864 -5.71185
lfingers 7.12502
lthumb -0.793273 24.2664
rfemur -61.5696 0.300235 22.1438
rtibia 68.2057
rfoot -32.0351 -17.3805
rtoes 2.58476
lfemur -60.6902 4.80162 -17.3415
ltibia 67.4785
lfoot -28.6417 20.4115
ltoes -7.16512
318
root 0.287043 15.3484 -14.019 28.1104 1.21269 -2.09037
lowerback 17.7771 0.344748 -1.1987
upperback 1.89839 0.44591 2.63092
thorax -7.95799 0.298011 3.41316
lowerneck -22.9656 0.237668 -2.25385
upperneck 10.1195 1.08011 -0.464884
head 6.77612 0.38072 0.337205
rclavicle 1.09332e-014 3.39922e-014
rhumerus -20.6847 -19.1728 -79.0198
rradius 20.8672
rwrist 37.5541
rhand -20.1473 -25.5763
rfingers 7.12502
rthumb 6.19762 -55.4657
lclavicle 1.09332e-014 3.39922e-014
lhumerus -13.5956 26.0805 83.7235
lradius 8.39583
lwrist -17.43
lhand -27.6812 -6.07879
lfingers 7.12502
lthumb -1.07801 23.8982
rfemur -61.2674 0.276695 22.2679
rtibia 68.4608
rfoot -32.1713 -17.7282
rtoes 1.8698
lfemur -60.3976 4.85116 -17.2154
ltibia 67.7614
lfoot -28.7159 20.6952
ltoes -8.07113
319
root 0.279519 15.3302 -13.91 28.0731 1.21322 -2.1283
lowerback 17.6948 0.372195 -1.20496
upperback 1.7336 0.486482 2.66543
thorax -8.09522 0.322112 3.44567
lowerneck -23.1366 0.208282 -2.34028
upperneck 10.1371 1.06417 -0.414261
head 6.80811 0.373623 0.366148
rclavicle -5.56597e-015 -1.09332e-014
rhumerus -20.0495 -19.4751 -79.1276
rradius 20.9365
rwrist 37.8307
rhand -20.2919 -25.6324
rfingers 7.12502
rthumb 6.05806 -55.5257
lclavicle -5.56597e-015 -1.09332e-014
lhumerus -12.8475 26.4897 84.0534
lradius 8.63589
lwrist -17.4651
lhand -27.9131 -6.52051
lfingers 7.12502
lthumb -1.30198 23.4553
rfemur -60.8405 0.231637 22.3857
rtibia 68.6127
rfoot -32.3477 -18.1025
rtoes 0.776766
lfemur -59.9725 4.9007 -17.0998
ltibia 67.9395
lfoot -28.821 21.0132
ltoes -9.21453
320
root 0.272478 15.3206 -13.7941 28.0093 1.20768 -2.15035
lowerback 17.5742 0.40167 -1.21907
upperback 1.56285 0.527684 2.69189
thorax -8.21789 0.346583 3.4735
lowerneck -23.2994 0.179962 -2.41159
upperneck 10.2019 1.04689 -0.371289
head 6.85452 0.365257 0.390138
rclavicle -5.96354e-016 7.95139e-016
rhumerus -19.4677 -19.5832 -79.2799
rradius 21.1148
rwrist 37.7678
rhand -20.4644 -25.7209
rfingers 7.12502
rthumb 5.89151 -55.619
lclavicle -5.96354e-016 7.95139e-016
lhumerus -12.1866 26.8689 84.3413
lradius 9.01666
lwrist -17.4481
lhand -28.0449 -6.99116
lfingers 7.12502
lthumb -1.42926 22.9838
rfemur -60.2883 0.168999 22.4884
rtibia 68.6417
rfoot -32.5411 -18.4952
rtoes -0.616401
lfemur -59.4142 4.94902 -17.0019
ltibia 67.991
lfoot -28.9536 21.3368
ltoes -10.4518
321
root 0.266033 15.3211 -13.6706 27.9196 1.2068 -2.15113
lowerback 17.4091 0.426209 -1.23712
upperback 1.38865 0.561079 2.71023
thorax -8.31911 0.367124 3.49632
lowerneck -23.4531 0.148159 -2.48185
upperneck 10.3146 1.02431 -0.323106
head 6.91542 0.354352 0.415165
rclavicle -1.98785e-015 -1.88845e-014
rhumerus -18.9389 -19.4842 -79.4745
rradius 21.3957
rwrist 37.3598
rhand -20.6369 -25.8375
rfingers 7.12502
rthumb 5.72495 -55.7401
lclavicle -1.98785e-015 -1.88845e-014
lhumerus -11.6173 27.2242 84.5792
lradius 9.52302
lwrist -17.3881
lhand -28.05 -7.46498
lfingers 7.12502
lthumb -1.43419 22.5099
rfemur -59.5913 0.0834978 22.5684
rtibia 68.5278
rfoot -32.7541 -18.8639
rtoes -2.10521
lfemur -58.7108 4.98433 -16.926
ltibia 67.8926
lfoot -29.0992 21.6354
ltoes -11.623
